<svg width="684" height="682" viewBox="0 0 684 682" fill="none" xmlns="http://www.w3.org/2000/svg">
<path d="M332.749 3.78031C344.034 -1.23528 351.921 -0.991784 363.611 2.93168C375.301 6.85517 393.745 20.203 402.886 28.8995H402.765C423.151 48.2338 442.607 79.6215 444.427 108.057C446.773 144.541 437.349 172.289 431.524 206.63C430.998 209.704 431.08 212.738 431.201 215.812C432.697 217.551 443.375 204.123 444.832 202.262C466.472 174.393 492.036 133.863 507.972 102.88C516.75 85.8511 523.424 65.141 533.05 48.7998C534.183 46.8989 532.767 45.119 536.69 45.9278C525.041 107.207 492.642 160.762 460.405 213.143C457.816 217.349 451.102 222.324 451.749 229.038C458.018 230.171 459.515 224.63 463.195 221.839C500.286 193.687 508.741 182.604 555.135 167.598C571.395 162.339 574.388 154.897 592.266 165.494C608.527 175.121 616.253 194.617 629.196 207.682C642.261 220.827 668.674 234.701 678.26 246.553C690.273 261.397 681.092 294.443 671.991 309.207C667.825 315.962 660.867 316.974 657.834 327.409C649.42 356.532 669.928 390.833 653.061 419.632C649.906 420.926 646.751 421.532 643.353 420.643C635.263 418.539 617.87 407.174 608.082 403.129C586.32 394.109 548.987 382.338 525.85 385.897C521.644 386.545 515.9 390.59 520.633 393.866C520.894 394.043 521.352 394.217 521.956 394.395H522.09C525.851 395.487 534.872 396.579 538.552 397.873C551.9 402.565 573.136 415.023 584.299 423.922C596.272 433.468 629.278 468.132 631.3 482.37C631.442 483.371 631.497 484.41 631.479 485.481C631.33 495.741 624.498 508.777 623.251 516.991C623.196 517.35 623.147 517.702 623.103 518.047C622.213 525.383 623.773 529.812 622.403 535.198C621.712 537.956 620.256 540.963 617.304 544.739C608.77 555.66 601.044 556.024 591.053 562.455C586.385 565.458 583.434 570.549 581.119 576.145C579.361 580.41 577.966 584.965 576.456 589.113C575.812 590.891 575.15 592.594 574.429 594.167C567.594 609.012 560.677 616.495 547.329 625.96C526.013 631.097 503.038 623.856 481.924 626.202C459.07 628.791 434.234 641.209 412.837 649.42C405.961 650.795 397.831 647.802 392.613 643.434C383.188 635.546 387.961 611.196 387.354 598.899C385.655 565.691 380.842 519.54 370.77 488.03C370.647 487.642 370.531 487.25 370.415 486.859C369.779 484.792 369.187 482.765 367.933 481.647C367.016 480.844 365.747 480.526 363.86 481.03C364.027 482.095 364.08 483.147 364.052 484.189C363.945 488.593 362.423 492.833 362.253 497.132C362.243 497.375 362.237 497.618 362.237 497.861C362.331 524.425 364.544 553.646 363.828 581.322C363.622 589.312 363.173 597.173 362.357 604.805C360.416 622.926 350.951 644.809 335.904 655.973C323.244 665.357 311.109 657.631 295.739 667.096C289.389 670.979 282.957 681.98 277.051 681.414C264.432 680.241 246.148 657.388 235.227 649.541C221.394 639.631 203.192 632.877 186.891 627.901C169.782 622.684 143.733 619.811 128.565 613.097C124.678 611.373 122.535 607.896 121.596 603.871C120.441 598.999 121.056 593.32 122.499 588.992C124.35 583.399 129.767 579.532 129.452 573.17C129.443 573.011 129.431 572.85 129.415 572.689C128.484 563.224 112.062 549.148 108.422 539.319C106.07 532.996 104.969 527.941 105.116 522.945C105.257 517.958 106.642 513.032 109.272 506.962C117.848 487.102 160.803 442.042 178.479 428.209C188.187 420.605 202.182 414.821 212.901 408.43L214.348 401.876C210.624 402.642 202.948 401.673 199.836 402.684C183.616 407.942 145.189 433.182 132.286 445.074C116.026 460.04 98.4307 499.193 73.6765 476.987C72.5439 465.014 71.8159 443.658 64.0095 434.233C58.4681 427.56 34.6049 419.834 25.1393 413.039V413.041C22.8243 411.383 20.8869 409.758 19.2692 408.154C19.1962 408.082 19.1241 408.01 19.0524 407.938C18.9226 407.807 18.7952 407.676 18.6696 407.545C18.5753 407.447 18.4814 407.35 18.3893 407.252C18.2967 407.153 18.2062 407.054 18.1159 406.955C6.37972 394.169 14.421 382.459 13.6511 362.964C13.4893 358.676 12.5586 351.476 11.9518 347.107C7.50248 316.488 -7.01802 306.619 4.10516 272.966C12.7611 246.796 36.7068 242.184 50.7829 218.563C55.1513 211.241 55.4747 202.545 63.4431 198.985C75.7393 193.485 96.0035 197.165 109.23 200.077C138.677 206.63 171.279 221.313 197.247 236.603C210.352 244.328 226.733 258.363 239.758 264.431C243.236 266.049 245.744 267.14 249.506 265.604C250.112 262.206 249.02 259.739 247.281 256.907C238.989 243.357 207.722 216.702 194.415 205.821C174.919 189.885 154.25 178.276 137.424 158.739C119.626 138.03 100.373 108.381 138.273 96.5293C159.953 89.7343 168.447 103.769 181.876 80.0664C187.741 69.7117 197.449 40.7916 205.66 34.9668C226.248 20.3649 255.978 38.5665 277.335 42.3282C289.267 44.4315 292.422 42.692 300.228 34.2383C310.664 22.9532 317.014 10.7779 332.749 3.78031ZM370.73 194.94C367.98 185.354 359 169.539 347.877 178.64C344.964 194.576 350.87 209.866 352.043 225.317C353.418 243.155 352.65 266.17 346.906 283.118C345.652 286.84 337.279 307.791 332.344 297.72C326.075 277.415 319.482 253.267 308.682 234.944C304.84 228.392 295.82 214.275 287.811 222.526C285.061 242.629 302.777 255.694 311.311 271.833C314.749 278.305 317.581 285.585 319.846 292.583C321.99 299.136 326.803 313.94 325.023 319.805C324.416 321.746 322.718 323.485 321.302 324.941C304.435 316.933 302.453 283.442 277.497 293.473C274.989 302.614 284.09 303.261 289.753 308.034C292.584 310.421 306.498 323.931 306.337 326.317C305.325 328.38 303.707 329.513 301.482 329.917C286.678 332.748 260.265 316.529 245.097 311.675C227.219 305.931 188.874 297.68 171.562 304.03C164.201 306.74 163.472 310.502 164.685 318.065C179.692 323.162 195.952 320.574 212.01 322.758C228.069 324.942 262.126 333.719 274.908 343.346C278.225 345.854 281.905 350.788 284.656 354.146C276.971 354.267 268.881 350.991 260.549 350.425C247.929 349.535 212.82 348.443 203.597 355.116C198.663 358.676 194.537 366.968 201.13 370.244C205.943 372.631 229.484 366.927 236.967 366.522C249.79 365.835 286.719 368.909 296.912 375.583C306.659 381.975 300.874 388.512 294.523 394.395H294.728C292.18 396.781 289.47 399.086 287.69 401.189C272.077 419.634 233.206 468.617 233.449 491.956C233.475 494.959 234.187 497.749 235.388 500.159C239.755 508.721 250.317 512.387 258.283 503.603C271.752 471.931 282.795 435.447 308.156 411.38C309.612 410.005 310.34 407.498 311.432 406.607C313.652 404.84 327.306 396.148 329.665 399.947C329.89 400.252 330.035 400.648 330.081 401.149C320.629 421.912 305.287 443.037 313.826 466.781C325.438 473.753 328.99 459.421 331.172 450.494C336.106 430.189 333.72 419.632 349.616 402.279C361.184 389.659 370.083 388.082 384.159 398.194C392.329 404.059 404.95 417.488 410.653 425.901C410.824 426.154 410.992 426.407 411.159 426.662C421.948 443.06 424.496 464.382 431.939 482.335C437.355 487.646 444.835 484.569 445.843 477.271C447.502 465.217 442.001 454.134 436.783 443.698C425.255 420.764 407.376 400.864 393.057 379.79C395.606 379.79 398.236 379.385 400.784 380.113C407.458 382.055 423.758 389.7 429.906 393.502C445.802 403.25 448.189 413.201 459.07 425.861C461.659 428.896 470.597 439.694 474.48 434.031C476.215 431.494 476.298 428.31 475.264 424.82C472.054 414.262 458.706 400.969 450.01 394.395H450.149C448.327 393.013 446.699 391.918 445.398 391.196L390.186 365.107C386.263 359.526 404.949 360.658 407.012 360.739C423.07 361.386 434.316 366.887 448.149 369.436C469.303 373.278 468.09 354.146 451.061 351.881C432.657 349.454 411.058 354.51 392.411 353.418C384.766 352.447 408.024 337.521 409.399 336.712C424.082 328.137 441.313 322.192 458.26 321.1C474.925 320.048 495.999 324.618 510.924 322.475C518.124 321.463 522.937 317.54 518.933 310.381C511.208 296.507 482.004 303.383 468.656 303.666L400.46 325.549C398.801 324.052 407.901 315.68 409.237 314.547C424.971 301.158 443.861 300.188 461.699 291.572L460.687 283.685C456.844 278.669 438.32 287.324 432.94 289.913C424.082 294.12 403.291 305.81 396.213 311.796C388.851 318.025 383.148 329.027 376.758 336.389C370.003 344.195 348.403 369.273 337.643 358.434C327.41 348.16 338.088 330.119 345.531 321.221C351.072 314.587 358.839 308.803 364.623 302.21C377 288.093 392.896 271.914 396.01 253.024C396.617 249.465 396.82 234.418 394.635 232.598C392.896 231.951 390.509 230.495 388.689 231.183C380.883 234.055 379.184 273.977 369.719 280.206L369.638 280.246C372.874 253.793 378.132 220.908 370.73 194.94ZM542.921 87.2666C547.208 83.6263 559.302 84.7588 556.957 93.1719C553.802 104.578 534.669 94.3047 542.921 87.2666ZM501.5 64.17C505.423 68.7406 508.861 74.4043 501.904 77.8829C491.751 78.5705 486.655 69.1856 496.686 63.6846L501.5 64.17ZM550.079 70.5616C546.641 64.9797 555.984 54.7459 562.335 60.4893C565.935 65.1004 564.155 69.5498 560.11 73.0284C558.533 74.7272 550.442 71.0868 550.119 70.5205L550.079 70.5616ZM502.188 50.2969C495.595 39.2949 519.501 30.7601 514.687 53.209C511.33 53.4113 504.089 53.4517 502.188 50.2969ZM553.436 41.4786C551.576 32.2565 565.813 25.5828 570.06 32.9844C574.833 41.2764 559.301 49.5683 553.436 41.4786ZM521.522 12.4776C530.057 11.7093 535.315 26.8771 525.688 30.9219C517.679 28.3332 508.74 13.6506 521.522 12.4776ZM550.847 2.20316C572.77 -4.43039 556.186 31.0029 543.162 20.9717C541.099 17.6145 546.883 3.37638 550.847 2.20316Z" fill="#FFEFF7"/>
</svg>
