<svg width="82" height="82" viewBox="0 0 82 82" fill="none" xmlns="http://www.w3.org/2000/svg">
<path d="M48.2848 3.46452C50.7287 5.78239 53.0611 9.54528 53.2793 12.9542C53.5606 17.3281 52.4307 20.6545 51.7325 24.7714C51.6694 25.14 51.6791 25.5036 51.6937 25.8722C51.8731 26.0807 53.1533 24.4708 53.3278 24.2477C55.9221 20.9067 58.9867 16.0479 60.8973 12.3335C61.9495 10.292 62.7496 7.80931 63.9037 5.85027C64.0395 5.62237 63.8698 5.40901 64.3401 5.50599C62.9436 12.8524 59.0595 19.2726 55.1947 25.5521C54.8844 26.0564 54.0794 26.6529 54.157 27.4578C54.9086 27.5936 55.088 26.9293 55.5293 26.5947C59.9759 23.2197 60.9894 21.8911 66.5513 20.0921C68.5006 19.4617 68.8595 18.5694 71.0028 19.8399C72.9521 20.994 73.8783 23.3312 75.43 24.8975C76.9962 26.4735 80.1627 28.1367 81.3119 29.5575C82.7521 31.3371 81.6514 35.2988 80.5603 37.0687C80.0609 37.8785 79.2268 37.9997 78.8631 39.2508C77.8545 42.7421 80.313 46.8542 78.291 50.3067C77.9127 50.4619 77.5345 50.5346 77.1272 50.428C76.1573 50.1758 74.0722 48.8132 72.8988 48.3283C70.2899 47.247 65.8142 45.8359 63.0406 46.2626C62.5363 46.3402 61.8477 46.8251 62.415 47.2179C62.6381 47.3682 64.0443 47.5185 64.5632 47.7028C66.1634 48.2604 68.7092 49.7539 70.0475 50.8256C71.4828 51.97 75.4445 56.1256 75.6821 57.8325C75.8616 59.103 74.882 60.8923 74.7172 61.9785C74.499 63.4041 75.0809 63.9278 74.0044 65.305C72.9812 66.6142 72.055 66.6579 70.8573 67.4289C69.6887 68.1805 69.4171 70.0231 68.8643 71.2306C68.0448 73.0102 67.2156 73.9073 65.6154 75.0419C63.06 75.6578 60.3057 74.7898 57.7745 75.071C55.0347 75.3814 52.0574 76.87 49.4922 77.8544C48.6679 78.0193 47.6932 77.6605 47.0677 77.1368C45.9378 76.1912 46.51 73.272 46.4373 71.7979C46.2336 67.8168 45.6566 62.284 44.4491 58.5065C44.2988 58.0313 44.2164 57.5076 43.62 57.6677C43.7315 58.3659 43.426 59.0205 43.426 59.6897C43.4405 63.7921 43.877 68.4229 43.4405 72.5059C43.2078 74.6783 42.0731 77.3016 40.2692 78.64C38.7515 79.765 37.2967 78.8388 35.4541 79.9735C34.6928 80.439 33.9218 81.7579 33.2138 81.6901C31.7009 81.5494 29.5091 78.8097 28.1999 77.869C26.5415 76.6809 24.3594 75.8711 22.4052 75.2747C20.354 74.6492 17.2312 74.3049 15.4128 73.4999C14.3848 73.0441 14.3751 71.5652 14.6854 70.6147C14.9133 69.9262 15.5971 69.4558 15.5146 68.6557C15.4031 67.521 13.4344 65.8335 12.998 64.6552C12.4355 63.1423 12.4694 62.2355 13.0998 60.7808C14.1278 58.3999 19.2775 52.998 21.3966 51.3396C22.5604 50.428 24.243 49.7345 25.5232 48.9684L25.6977 48.178C25.2516 48.2701 24.3303 48.1537 23.9569 48.275C22.0124 48.9054 17.4058 51.9312 15.8589 53.3568C13.9096 55.151 11.8002 59.8449 8.83258 57.1828C8.69681 55.7474 8.60953 53.1871 7.67365 52.0573C7.00933 51.2572 4.14836 50.331 3.01368 49.5163C0.438808 47.6688 1.74321 46.2141 1.63653 43.5132C1.61714 42.9992 1.50561 42.136 1.43287 41.6123C0.89947 37.9416 -0.841353 36.7584 0.492146 32.7239C1.52985 29.5866 4.40051 29.0338 6.08799 26.2019C6.6117 25.3242 6.65049 24.2817 7.60576 23.855C9.07988 23.1955 11.5093 23.6367 13.0949 23.9859C16.6251 24.7714 20.5334 26.5317 23.6465 28.3646C25.2177 29.2908 27.1815 30.9734 28.7429 31.7008C29.16 31.8947 29.4606 32.0257 29.9116 31.8414C29.9843 31.4341 29.8534 31.1383 29.6449 30.7988C28.6508 29.1744 24.9025 25.9789 23.3071 24.6744C20.9699 22.7639 18.492 21.3722 16.4747 19.0301C14.3411 16.5474 12.033 12.993 16.5766 11.5722C19.1757 10.7576 20.194 12.4402 21.8039 9.59863C22.507 8.35726 23.6708 4.89016 24.6552 4.19189C27.1233 2.44137 30.6874 4.62346 33.2477 5.07442C34.6782 5.32658 35.0565 5.11807 35.9923 4.10461C37.2434 2.75171 38.0047 1.29213 39.891 0.453241C41.2439 -0.148047 42.1895 -0.118952 43.5909 0.351409C44.9922 0.821771 47.2034 2.42197 48.2993 3.46452L48.2848 3.46452ZM44.3134 33.5968C44.7013 30.4255 45.3317 26.4832 44.4443 23.37C44.1146 22.2208 43.0381 20.3248 41.7046 21.4159C41.3554 23.3264 42.0634 25.1594 42.204 27.0117C42.3689 29.1502 42.2768 31.9093 41.5882 33.9411C41.4379 34.3872 40.4341 36.899 39.8425 35.6916C39.0909 33.2573 38.3005 30.3624 37.0058 28.1658C36.5451 27.3802 35.4638 25.6879 34.5037 26.6771C34.1739 29.0871 36.2978 30.6534 37.321 32.5882C37.7332 33.364 38.0726 34.2369 38.3441 35.0757C38.6011 35.8613 39.1782 37.6361 38.9648 38.3392C38.8921 38.5719 38.6884 38.7804 38.5187 38.955C36.4966 37.9949 36.259 33.9798 33.2671 35.1824C32.9665 36.2783 34.0575 36.3559 34.7364 36.9281C35.0759 37.2142 36.7439 38.8338 36.7245 39.1199C36.6033 39.3672 36.4094 39.503 36.1427 39.5515C34.3679 39.8909 31.2014 37.9464 29.383 37.3645C27.2397 36.6759 22.6428 35.6867 20.5674 36.448C19.6848 36.7729 19.5976 37.2239 19.743 38.1307C21.542 38.7417 23.4914 38.4313 25.4165 38.6932C27.3416 38.955 31.4245 40.0073 32.9568 41.1614C33.3544 41.462 33.7957 42.0536 34.1254 42.4561C33.2041 42.4706 32.2343 42.0778 31.2354 42.0099C29.7225 41.9033 25.5135 41.7723 24.4079 42.5724C23.8163 42.9992 23.3217 43.9932 24.1121 44.386C24.6891 44.6721 27.5113 43.9884 28.4084 43.9399C29.9455 43.8575 34.3727 44.226 35.5947 45.0261C37.2289 46.0977 35.2213 47.2033 34.4794 48.081C32.6077 50.2922 27.9477 56.1693 27.9768 58.9624C27.9962 60.6159 29.737 61.7263 30.9638 60.3734C32.5786 56.5766 33.9024 52.2027 36.9428 49.3175C37.1173 49.1527 37.2046 48.852 37.3355 48.7453C37.6216 48.5174 39.4934 47.3294 39.5613 48.0762C38.4266 50.5734 36.5839 53.1047 37.6168 55.9559C39.0133 56.7997 39.44 55.0782 39.7019 54.0066C40.2935 51.5724 40.0074 50.3067 41.9131 48.2265C43.2999 46.7136 44.3667 46.5244 46.0542 47.7367C47.0337 48.4398 48.5466 50.0497 49.2304 51.0583C50.5687 53.0368 50.8693 55.6407 51.7761 57.818C52.4259 58.4629 53.3278 58.0944 53.4491 57.2167C53.6479 55.7717 52.9884 54.443 52.3629 53.1919C50.9809 50.4425 48.8376 48.0568 47.121 45.5304C47.4265 45.5304 47.7417 45.4819 48.0472 45.5692C48.8473 45.8019 50.8015 46.7184 51.5385 47.1742C53.4442 48.3429 53.7303 49.5357 55.0347 51.0535C55.3451 51.4172 56.4167 52.7119 56.8822 52.033C57.8472 50.6219 54.5498 47.5379 53.3957 46.8978L46.7767 43.7702C46.3064 43.101 48.5466 43.2368 48.7939 43.2465C50.719 43.324 52.0671 43.9835 53.7255 44.289C56.2615 44.7497 56.1161 42.4561 54.0746 42.1845C51.8683 41.8936 49.2788 42.4997 47.0434 42.3688C46.1269 42.2524 48.9152 40.4631 49.08 40.3661C50.8402 39.3381 52.906 38.6253 54.9377 38.4943C56.9356 38.3683 59.4619 38.9162 61.2512 38.6592C62.1144 38.538 62.6914 38.0676 62.2114 37.2093C61.2852 35.5461 57.7841 36.3705 56.1839 36.4044L48.0084 39.0278C47.8096 38.8483 48.9006 37.8446 49.0606 37.7088C50.9469 36.1037 53.2115 35.9874 55.3499 34.9545L55.2287 34.0089C54.768 33.4077 52.5471 34.4454 51.9022 34.7557C50.8402 35.26 48.3478 36.6614 47.4992 37.3791C46.6167 38.1258 45.933 39.4448 45.1668 40.3273C44.357 41.2632 41.7676 44.2696 40.4777 42.9701C39.2509 41.7384 40.5311 39.5757 41.4233 38.5089C42.0876 37.7137 43.0187 37.0202 43.7121 36.2298C45.1959 34.5375 47.1016 32.5979 47.475 30.3333C47.5477 29.9066 47.572 28.1028 47.3101 27.8845C47.1016 27.807 46.8155 27.6324 46.5973 27.7148C45.6614 28.0591 45.4578 32.8452 44.3231 33.5919L44.3134 33.5968Z" fill="white"/>
<path d="M66.0373 0.264083C68.6655 -0.531169 66.6774 3.71663 65.116 2.51406C64.8687 2.11159 65.5621 0.404706 66.0373 0.264083Z" fill="white"/>
<path d="M62.5217 1.49581C63.5448 1.40368 64.1752 3.22209 63.0211 3.707C62.061 3.39665 60.9893 1.63643 62.5217 1.49581Z" fill="white"/>
<path d="M68.3406 3.95419C68.9128 4.94825 67.0507 5.94232 66.3476 4.9725C66.1246 3.86691 67.8314 3.06681 68.3406 3.95419Z" fill="white"/>
<path d="M65.9451 8.45908C65.533 7.78991 66.6531 6.56309 67.4144 7.25166C67.846 7.80446 67.6326 8.33786 67.1477 8.75488C66.9586 8.95854 65.9888 8.52212 65.95 8.45424L65.9451 8.45908Z" fill="white"/>
<path d="M61.7022 6.37877C61.2998 6.40302 60.4318 6.40787 60.2039 6.02964C59.4135 4.71069 62.2793 3.68753 61.7022 6.37877Z" fill="white"/>
<path d="M59.5441 7.63464L60.1212 7.69283C60.5915 8.24078 61.0037 8.91965 60.1697 9.33667C58.9525 9.41911 58.3416 8.29412 59.5441 7.63464Z" fill="white"/>
<path d="M65.0869 10.4618C65.6009 10.0253 67.0508 10.1611 66.7695 11.1697C66.3913 12.5372 64.0977 11.3055 65.0869 10.4618Z" fill="white"/>
<path d="M72.8889 48.3186C74.0624 48.8035 76.1524 50.1661 77.1173 50.4182C77.5247 50.5249 77.9029 50.4522 78.2811 50.297C78.8485 49.332 79.0618 48.3186 79.1006 47.276L70.0134 47.276C71.0802 47.6106 72.0791 47.9791 72.8938 48.3186L72.8889 48.3186Z" fill="#37358A"/>
<path d="M3.01391 49.5117C4.1486 50.3264 7.00956 51.2525 7.67389 52.0526C8.60976 53.1825 8.69704 55.7428 8.83282 57.1781C11.7956 59.8403 13.9098 55.1463 15.8592 53.3522C17.406 51.9266 22.0126 48.9007 23.9571 48.2703C24.3305 48.1491 25.2518 48.2703 25.698 48.1734L25.5234 48.9638C24.2384 49.7299 22.5606 50.4233 21.3968 51.335C19.2778 52.9934 14.128 58.3952 13.1 60.7761C12.4696 62.2309 12.4357 63.1377 12.9982 64.6506C13.4346 65.824 15.4033 67.5115 15.5149 68.6511C15.5925 69.4512 14.9136 69.9215 14.6857 70.6101C14.3705 71.5557 14.385 73.0395 15.413 73.4953C17.2314 74.3051 20.3543 74.6445 22.4054 75.2701C24.3596 75.8665 26.5466 76.6763 28.2001 77.8643C29.5142 78.8051 31.706 81.5448 33.214 81.6854C33.922 81.7533 34.6979 80.4343 35.4543 79.9688C37.297 78.8341 38.7517 79.7603 40.2695 78.6353C42.0782 77.297 43.208 74.6688 43.4408 72.5012C43.8772 68.4183 43.4408 63.7874 43.4262 59.6851C43.4262 59.0159 43.7317 58.3613 43.6202 57.663C44.2166 57.5078 44.2942 58.0316 44.4494 58.5019C45.6568 62.2794 46.2339 67.8122 46.4375 71.7933C46.5151 73.2674 45.9429 76.1865 47.0679 77.1321C47.6934 77.6558 48.6729 78.0147 49.4924 77.8498C52.0576 76.8703 55.035 75.3767 57.7747 75.0664C60.3059 74.7803 63.0602 75.6483 65.6157 75.0373C67.2159 73.9026 68.0451 73.0104 68.8646 71.2259C69.4222 70.0185 69.6889 68.1758 70.8575 67.4242C72.0553 66.6581 72.9814 66.6096 74.0046 65.3003C75.0811 63.9232 74.504 63.3995 74.7174 61.9739C74.8823 60.8828 75.8618 59.0935 75.6824 57.8279C75.4399 56.121 71.4831 51.9653 70.0477 50.8209C68.7094 49.7541 66.1636 48.2606 64.5634 47.6981C64.1221 47.543 63.0408 47.412 62.5898 47.2811L53.9488 47.2811C55.3404 48.3334 57.7262 50.821 56.8873 52.0478C56.4218 52.7266 55.3501 51.4319 55.0398 51.0683C53.7742 49.5844 53.4638 48.4207 51.6891 47.2811L48.3771 47.2811C49.8028 49.1965 51.3108 51.0925 52.3728 53.2067C52.9983 54.4578 53.6627 55.7816 53.459 57.2314C53.3378 58.1091 52.4358 58.4777 51.7861 57.8327C50.8793 55.6506 50.5786 53.0515 49.2403 51.0731C48.5566 50.0645 47.0436 48.4546 46.0641 47.7515C45.7974 47.5575 45.5453 47.4023 45.3028 47.2811L43.0431 47.2811C42.6795 47.4945 42.3158 47.8145 41.923 48.2412C40.0173 50.3166 40.3034 51.5823 39.7118 54.0214C39.45 55.093 39.0233 56.8144 37.6267 55.9707C36.5939 53.1194 38.4365 50.5834 39.5712 48.0909C39.5033 47.3442 37.6316 48.5322 37.3455 48.7601C37.2145 48.8619 37.1273 49.1674 36.9527 49.3323C33.9123 52.2175 32.5885 56.5962 30.9738 60.3882C29.7469 61.746 28.0013 60.6307 27.9867 58.9771C27.9576 56.1792 32.6176 50.307 34.4894 48.0958C34.7027 47.8436 35.0276 47.5672 35.3331 47.2811L1.43311 47.2811C1.53979 48.0376 1.93741 48.7456 3.01391 49.5166L3.01391 49.5117Z" fill="#37358A"/>
</svg>
