<svg width="120" height="100" viewBox="0 0 120 100" fill="none" xmlns="http://www.w3.org/2000/svg">
<path d="M0.045118 39.1413C-0.0488196 38.5751 0.0187778 36.8906 0.112501 36.3561C0.782397 32.5374 2.95862 29.9012 5.97969 27.6969C6.67535 30.9133 7.79913 33.73 10.2629 36.0827C11.3643 37.1341 13.0577 37.1329 14.0158 35.8385C15.5934 33.7066 13.3859 32.2575 12.3576 30.5885C11.6472 29.4255 11.1888 28.1251 11.0119 26.7731C10.6597 23.9867 11.3188 21.3229 13.0617 19.1022C14.5427 17.2 16.6618 15.8971 19.0275 15.4342C19.6999 15.3068 20.5099 15.2764 21.2092 15.194C20.7534 19.5195 21.3235 23.0565 23.7111 26.8063C26.4285 31.0297 30.7124 34.002 35.6203 35.068C36.9827 35.3686 39.7855 35.8093 40.9572 35.0192C41.5142 34.6355 41.888 34.0386 41.9904 33.3698C42.0981 32.7015 41.9375 32.0174 41.5432 31.4664C40.5748 30.1379 38.7074 30.4834 37.2639 30.1911C33.6216 29.47 30.4723 27.5378 28.3293 24.487C20.8097 13.781 33.7302 1.14139 44.716 6.27114C45.35 6.56722 45.9283 6.8491 46.6105 6.98989C48.5288 7.38558 49.2962 5.52266 50.3225 4.33168C50.9757 3.58412 51.8006 2.84464 52.5998 2.2809C55.3547 0.364472 58.7549 -0.386678 62.0607 0.189103C67.1912 1.11435 71.6385 4.91335 72.9348 10.0133C73.4142 11.9 72.8046 14.7878 75.4699 15.1334C76.1535 15.2228 76.8438 15.0349 77.3879 14.612C78.5094 13.7273 78.3543 12.1777 78.2307 10.9088C77.9091 7.59419 76.3768 4.43782 74.3254 1.84926C75.9411 1.08199 76.9568 0.455915 78.7951 0.183243C83.6571 -0.537685 87.2136 1.07377 90.4973 4.51723C91.9862 6.03911 93.0393 5.38479 94.7697 5.16469C102.375 4.19887 110.495 11.0954 109.409 18.9938C109.096 21.4619 111.666 21.9985 113.253 23.152C117.485 26.2283 119.954 31.1022 119.619 36.3981C119.079 44.9617 111.02 51.2484 102.622 50.6403C95.5672 50.2458 89.5379 44.5835 88.6564 37.5817C88.5125 36.4351 88.6108 34.6634 87.7883 33.7838C87.326 33.2949 86.6857 33.0133 86.0129 33.0006C85.3115 32.9765 84.6323 33.2477 84.1408 33.7487C83.5029 34.4063 83.4143 35.2428 83.4504 36.109C83.6996 42.0865 86.0056 46.68 90.298 50.6911C86.7292 50.7158 83.1609 50.722 79.592 50.7106L48.4943 50.7106C46.3634 50.7112 44.198 50.7405 42.0695 50.6784C41.3378 50.6568 40.59 50.5269 39.9191 50.2213C38.5188 49.5701 37.5025 48.3022 37.1711 46.7936C36.8917 45.4689 36.9457 43.9372 35.4191 43.3112C34.2239 42.8216 32.4653 43.4388 32.1164 44.7623C31.5909 46.7555 32.3909 48.923 33.2639 50.7018C28.9142 50.7722 24.3925 50.7097 20.0295 50.7116L15.6516 50.7125C14.245 50.7132 12.2625 50.7277 10.8977 50.4411C8.60191 49.9667 6.45734 48.9354 4.65352 47.4381C2.17433 45.4107 0.358624 42.3577 0.045118 39.1413ZM93.5871 17.9967C93.917 27.8109 102.172 35.3922 111.942 35.4596C113.506 35.4704 114.681 34.335 114.567 32.735C114.563 32.6913 114.559 32.6468 114.554 32.6032C113.975 29.9577 111.726 30.569 109.731 30.1803C104.66 29.1923 100.238 25.4127 98.9631 20.3356C98.4908 18.5334 99.0305 16.6253 97.4084 15.612C96.832 15.2531 96.1346 15.143 95.4758 15.3073C94.1524 15.632 93.6112 16.731 93.5871 17.9967ZM73.5432 34.5875C73.403 35.5102 73.2182 37.5766 73.3469 38.4899C73.8206 40.7107 76.5932 41.2498 77.8635 39.4557C78.5291 38.5157 78.3756 36.5467 78.5607 35.3717C78.9945 32.551 80.0976 29.8751 81.7775 27.568C82.8518 26.0994 84.1444 24.8046 85.6105 23.7272C86.9467 22.748 88.9885 21.9786 88.5598 19.8795C88.3245 19.1693 88.0197 18.5927 87.3469 18.1989C85.8388 17.3186 84.4352 18.384 83.217 19.2116C78.0317 22.7337 74.4856 28.3933 73.5432 34.5875ZM37.3693 16.4479C37.0684 16.9729 36.9871 17.5843 37.0666 18.1803C37.5365 20.625 39.8862 20.1494 41.7053 20.4811C50.4586 22.0794 54.9742 31.9674 50.3107 39.5709C49.5449 40.8202 48.0367 42.0802 48.423 43.6813C48.584 44.3331 48.9987 44.8929 49.5754 45.236C50.1548 45.5872 50.8518 45.6903 51.508 45.5211C53.6789 44.97 56.2627 39.5065 56.6994 37.3434C56.8325 36.6847 57.0042 35.9222 57.1369 35.2565C59.4803 34.6356 61.1831 34.0034 63.0666 32.3444C65.7944 29.7793 67.2457 26.9752 67.384 23.1579C67.4113 22.3976 67.267 21.6483 66.718 21.0807C66.2411 20.5962 65.5898 20.3211 64.9094 20.3161C64.2373 20.3041 63.5884 20.566 63.1115 21.0397C62.1568 22.0011 62.4182 23.6836 62.0295 24.9518C61.2089 27.626 59.5233 29.0117 57.0666 30.0885C56.828 29.0149 56.6347 28.1291 56.2688 27.0846C54.9416 23.3096 52.3801 20.0931 48.9982 17.9547C46.5757 16.4213 43.8167 15.5004 40.9592 15.2702C39.6444 15.1712 38.1345 15.113 37.3693 16.4479ZM17.9484 38.1198C16.6032 38.4089 15.7435 39.7298 16.0236 41.0768C16.3067 42.4362 17.6417 43.306 18.9992 43.0143C20.3567 42.7232 21.2172 41.3817 20.9172 40.026C20.6196 38.683 19.2936 37.8309 17.9484 38.1198Z" fill="#F17A90"/>
<path fill-rule="evenodd" clip-rule="evenodd" d="M82.4619 59.3291C87.7718 58.7432 93.0955 60.3031 97.248 63.6621C101.265 66.9236 104.005 71.7333 104.544 76.8975C105.829 76.908 107.323 76.6434 108.284 77.5616C108.733 77.9909 108.992 78.5809 109.005 79.2012C109.018 79.8466 108.767 80.4691 108.311 80.9258C107.367 81.8732 105.85 81.633 104.544 81.6328C104.398 82.9638 104.114 84.2761 103.694 85.5479C102.006 90.6278 98.3653 94.8277 93.5752 97.2207C88.5994 99.7144 83.1772 99.9085 77.9404 98.1641C75.7777 97.3934 73.7635 96.2566 71.9863 94.8037C68.2366 91.7484 65.7186 87.4411 64.8965 82.6758C64.7697 81.9387 64.6891 81.1944 64.6543 80.4473C64.6303 79.9316 64.6467 79.3462 64.5879 78.8408C64.253 75.9729 61.5565 73.8954 58.7031 74.2032C56.1377 74.4799 54.016 76.6345 53.9355 79.2364C53.9199 79.7271 53.9153 80.2264 53.8877 80.7168C53.8217 81.7201 53.6756 82.7169 53.4521 83.6973C52.7859 86.6344 51.4647 89.3832 49.5869 91.7383C46.2626 95.9279 41.3987 98.6135 36.081 99.1963C30.7961 99.779 25.4966 98.2345 21.3535 94.9034C17.2498 91.6211 14.6081 86.8507 14.0049 81.6319C12.7335 81.6014 11.2168 81.894 10.2588 80.958C9.80334 80.5082 9.54767 79.8939 9.54979 79.2539C9.55327 78.6137 9.81307 78.0009 10.2705 77.5528C11.1861 76.6653 12.7325 76.8875 13.9717 76.9024C14.1712 75.6873 14.3559 74.5994 14.7217 73.4151C17.3374 64.9477 24.8329 59.4353 33.6181 59.2246C36.9253 59.1624 40.1955 59.9312 43.1279 61.461C48.056 64.021 51.4427 68.2613 53.1084 73.5225C54.6635 71.9039 56.7975 70.9683 59.042 70.9209C61.583 70.8533 63.6376 71.7824 65.4502 73.5088C66.1997 71.0152 67.4255 68.6901 69.0605 66.6631C72.3807 62.5417 77.1997 59.9044 82.4619 59.3291ZM50.5039 78.3653C50.0084 69.1974 42.1725 62.166 33.001 62.6592C23.8267 63.1527 16.7895 70.9885 17.2851 80.1592C17.7808 89.3297 25.621 96.3614 34.7949 95.8643C43.9663 95.3671 50.9993 87.5331 50.5039 78.3653ZM101.264 78.3692C100.77 69.1909 92.9197 62.154 83.7383 62.6602C74.5752 63.1654 67.5529 70.9941 68.0459 80.1543C68.5383 89.3147 76.36 96.3449 85.5244 95.8653C94.707 95.3847 101.757 87.5476 101.264 78.3692Z" fill="#F17A90"/>
</svg>
