<svg width="66" height="103" viewBox="0 0 66 103" fill="none" xmlns="http://www.w3.org/2000/svg">
<path fill-rule="evenodd" clip-rule="evenodd" d="M19.9366 67.8145C22.5494 67.5471 23.9997 71.198 25.4561 73.0225C27.8592 76.0322 32.0878 77.073 35.5792 75.4786C37.998 74.2121 39.7931 72.533 42.7501 72.8321C46.6262 73.2241 50.1329 73.8951 53.9239 72.5596C54.6753 72.2948 55.1431 71.7282 55.8702 71.792C56.872 72.8426 63.7422 85.5123 64.2716 86.9571C64.8909 88.6333 65.204 90.4073 65.1954 92.1944C65.0994 100.676 57.1417 102.08 50.4249 102.009C39.7118 101.905 29.0306 102.147 18.2364 102.057C11.917 102.004 2.87907 102.693 0.317476 94.9776C-0.109547 93.6908 -0.0305704 91.6936 0.121187 90.3545C0.598846 86.1384 3.23787 82.3687 5.26474 78.7549C6.69044 76.213 8.01663 73.6458 9.5333 71.1631C14.1637 70.806 15.6614 68.947 19.9366 67.8145ZM54.8302 89.7911C53.9397 86.1261 50.2498 83.8741 46.5831 84.7579C42.907 85.6439 40.6476 89.3451 41.5401 93.0196C42.433 96.6943 46.1397 98.9467 49.8126 98.0469C53.4757 97.1495 55.7206 93.456 54.8302 89.7911ZM32.5509 87.7842C31.2665 86.4569 29.3659 85.9248 27.5792 86.3926C25.9561 86.8177 24.6441 88.0126 24.0694 89.5889C23.495 91.1653 23.7307 92.9232 24.6993 94.293C25.8943 95.9831 27.9905 96.7859 30.0089 96.3272C31.8098 95.9176 33.2497 94.5691 33.7765 92.7989C34.3032 91.0287 33.835 89.1116 32.5509 87.7842ZM47.63 88.6133C50.0742 88.5765 51.3116 89.8175 50.6056 92.4639C50.3682 93.3534 49.6193 94.0275 48.7706 94.4082C47.6875 94.4737 46.8766 94.2047 46.1935 93.2374C45.3396 92.0281 45.5647 90.9589 45.8106 89.5918C46.5099 89.135 46.8294 88.9075 47.63 88.6133ZM28.5977 90.2471C30.3876 90.496 29.7719 91.5717 29.0851 92.6456C28.6298 92.2701 28.104 91.9462 28.0118 91.3907C28.0772 90.8584 28.2784 90.665 28.5977 90.2471ZM23.3663 77.3663C21.7798 75.6371 19.3869 74.8925 17.0997 75.417C13.6121 76.217 11.4189 79.6765 12.1837 83.1719C12.9487 86.6672 16.3859 88.8947 19.8888 88.1651C22.1861 87.6866 24.0492 86.011 24.7686 83.7774C25.4878 81.5436 24.9526 79.0956 23.3663 77.3663ZM18.2462 79.2989C21.5973 79.4453 22.0978 83.1043 18.9102 84.1641C17.0379 84.5304 15.6712 82.4548 16.4483 80.8047C16.9625 79.7137 17.2231 79.7422 18.2462 79.2989ZM22.711 11.4805C29.3119 11.4047 35.9137 11.4015 42.5147 11.4707C42.4738 14.7869 42.5712 17.9695 42.3517 21.2872C40.2284 21.2543 32.7853 20.6486 31.421 22.0928C31.0835 22.4502 30.9133 22.9198 30.9474 23.4102C30.9768 23.8352 31.1627 24.1955 31.4913 24.4678C32.7389 25.5026 40.4654 25.263 42.421 25.0948C42.5101 28.0355 42.5297 30.9783 42.4806 33.92C40.3692 33.9085 32.9745 33.4343 31.6231 34.8155C31.2824 35.1651 31.0963 35.637 31.1056 36.125C31.1551 38.9857 40.2039 38.1342 42.4698 38.1016C42.4898 39.7604 42.6904 44.2382 42.2149 45.5274C40.2426 47.1547 29.1647 42.9195 31.4288 49.3575C34.4212 49.8879 40.8114 49.7787 43.8927 49.4415C44.0153 49.8763 44.2428 50.6823 44.4669 51.0557C47.2064 55.6246 49.6875 60.3109 52.2237 64.9922C52.6899 65.8525 53.3648 67.1492 53.919 67.9092C47.6482 70.9767 43.8141 67.3442 38.1524 69.3975C34.6575 70.6652 31.8515 75.5386 27.8448 69.419C23.6625 63.0312 21.4564 62.6214 14.7237 65.4961C13.8345 65.7938 13.61 66.1229 12.6397 66.3858L12.4308 66.2627C12.6673 65.4619 13.1873 65.1162 13.6446 64.0694L13.7188 63.8252C14.5542 61.2532 17.5419 56.9171 18.7452 54.3995C19.8927 51.9995 22.4588 49.1563 22.6124 46.2725C22.7589 42.0967 22.6922 37.8551 22.6925 33.6768L22.711 11.4805ZM21.9513 0.0498492C29.1593 -0.079364 36.5438 0.0831034 43.7608 0.085982C45.7043 0.0868108 46.6143 0.728377 47.8477 2.09965C48.7974 6.05151 47.5425 8.00249 43.4815 8.14067C37.0098 8.27004 30.499 8.0937 24.0235 8.17094C21.8087 8.19733 20.2263 8.23989 18.1729 7.30766C16.2119 4.74531 16.7538 2.54464 18.9181 0.440474C20.1631 0.120456 20.6747 0.104385 21.9513 0.0498492Z" fill="#F17A90"/>
</svg>
