<svg width="133" height="96" viewBox="0 0 133 96" fill="none" xmlns="http://www.w3.org/2000/svg">
<path d="M50.2388 61.7659L49.4111 65.0489L50.6802 66.1387C60.1706 66.8973 70.7645 71.546 79.9652 72.3736C91.6351 73.422 96.7113 65.0489 91.1661 54.9378L120.644 31.3774C128.962 26.9356 136.756 36.5502 130.866 43.9025C116.051 56.3862 102.643 72.0012 87.9934 84.4435C85.2484 86.7747 82.2412 89.6439 78.3651 89.4784L35.9342 83.4641C31.5615 86.016 25.4093 97.0238 19.9882 95.3271C18.9122 94.996 15.7258 92.3338 14.5947 91.4096C12.4014 89.6025 2.19373 80.319 1.11778 78.6224C-2.53767 72.815 3.60073 69.0078 7.64242 65.1317C19.1605 54.0826 29.1061 43.4473 46.5695 45.5302C53.3149 46.3302 76.3098 52.9514 82.7654 55.6827C87.0416 57.4897 88.9728 58.9795 87.8141 64.2075C86.9313 68.1802 84.1035 68.0422 80.7377 67.7526C76.2822 67.3663 51.7837 60.7865 50.2388 61.7659Z" fill="#F17A90"/>
<path d="M60.7776 0.0369231C67.3298 -0.473461 70.3231 4.40967 74.4614 8.3548C80.048 -0.280343 93.1939 -4.32203 97.7873 7.44439C102.712 20.066 80.9722 31.1566 75.0959 40.7435C73.2337 41.2401 67.1781 34.3844 65.5642 32.7291C62.3501 29.4185 54.6806 21.9972 52.4459 18.8108C47.2731 11.4171 51.7286 0.740425 60.7914 0.0369231H60.7776Z" fill="#F17A90"/>
</svg>
