<?xml version="1.0" encoding="UTF-8"?>
<svg id="Layer_2" data-name="Layer 2" xmlns="http://www.w3.org/2000/svg" viewBox="0 0 176.56 65.65">
  <defs>
    <style>
      .cls-1 {
        fill: #fff;
      }
    </style>
  </defs>
  <g id="Layer_1-2" data-name="Layer 1">
    <path class="cls-1" d="M55.44,11.14c.07.45.03.93-.09,1.37-.23.81-.44,1.45-1.28,1.79-.45.18-1.16.41-1.62.19-.16-.08-.41-.32-.36-.53.19-.77.22-1.66-.27-2.33-.32-.42-.76-.66-1.24-.75-.47-.09-.99-.04-1.46.1-.92.27-1.77.83-2.5,1.43-1.31,1.08-2.48,2.3-3.62,3.56v20.97h-5.05V10.29h5.05v5.11c.13-.51.57-.96.89-1.34.66-.66,1.18-1.45,1.81-2.14.64-.71,1.34-1.38,2.15-1.9,1.34-.87,2.89-1.36,4.49-1.37,1.4-.01,2.89,1.06,3.1,2.49ZM58.7,27c-.4-1.45-.59-2.82-.61-4.09-.04-2.04.37-4.09,1.2-5.95,2.43-5.42,8.27-8.92,14.2-8.37,4,.37,7.55,2.53,9.89,5.64.69-.7,1.35-1.41,1.98-2.16.83-1,1.59-2.15,1.97-3.4.19-.64.26-1.34.15-1.98-.12-.65-.43-1.26-1.01-1.69-.91-.68-2.12-.64-3.17-.39-.29.07-.62-.27-.72-.49-.29-.63.03-1.61.27-2.21.46-1.14,1.34-1.43,2.44-1.73.6-.17,1.25-.21,1.87-.11,1.95.31,3.4,2.34,3.37,4.25-.03,2.18-.7,4.3-1.9,6.11-.72,1.09-1.63,2.04-2.61,2.92-.66.59-1.4,1.13-2.09,1.7.99,1.53,1.71,3.25,2.06,5.08.68,3.54-.11,7.32-2.02,10.36-1.91,3.03-5.06,5.1-8.51,5.95-6.36,1.56-12.74-1.17-15.78-6.98-.41-.78-.75-1.59-.98-2.43ZM70.43,34.18c.36.22.73.41,1.13.55,7.84,2.78,9.34-5.51,9.34-5.51,1.56-9.71-4.03-15.51-6.74-17.7-.89-.72-1.95-1.2-3.08-1.39-6.91-1.14-7.75,4.62-7.75,4.62-2.5,12.39,4.8,18,7.11,19.42ZM123.36,34.16c-4.08,2.05-3.78-1.98-3.78-1.98v-12.4c0-2.5-.89-5.09-2.45-7.06-2.22-2.79-5.93-3.89-9.39-3.67-1.38.09-2.79.21-4.1.7-2.38.88-4.39,2.99-5.68,5.12-.31.52-.65,1.46-.02,1.92.13.1.73.1.69-.18-.05-.42-.15-.78.01-1.18.26-.61.68-1.15,1.17-1.59,1.52-1.39,3.53-2.44,5.55-2.84,2.26-.45,4.64-.07,6.66,1.01,2.71,1.45,2.52,6.08,2.52,6.08v5.33c-.04-.08-.08-.16-.11-.22-.13-.28-.34-.54-.55-.75-2.44-2.44-5.97-3.74-9.41-3.47-5.98.47-11.9,5.98-9.68,12.33.86,2.44,2.91,4.43,5.37,5.2,2.07.65,4.35.47,6.4-.25,2.05-.71,3.9-1.92,5.57-3.31.66-.54,1.32-1.16,1.58-1.97.04-.11.06-.25,0-.34-.13-.19-.42-.06-.6.08-1.21.95-2.43,1.9-3.8,2.59-1.37.69-2.91,1.12-4.44.96-2.3-.25-4.35-1.91-5.19-4.06-.84-2.15-.5-4.69.77-6.62,1.08-1.64,2.84-2.85,4.78-3.16,1.93-.31,3.89.23,5.62,1.08.37.18,2.76,1.52,3.72,2.48v8.17c-.1,3.69,3.75,4.57,3.75,4.57,3,.91,5.07-1.32,5.07-1.32,1.1-1.73,0-1.24,0-1.24ZM143.99,8.65c-1.6.01-3.15.5-4.49,1.37-.8.53-1.5,1.19-2.15,1.9-.62.69-1.15,1.49-1.81,2.14-.33.38-.76.83-.89,1.34v-5.11h-5.05v26.65h5.05V15.97c1.14-1.26,2.3-2.48,3.62-3.56.73-.61,1.58-1.16,2.5-1.43.47-.14.98-.19,1.46-.1.48.09.92.32,1.24.75.5.67.46,1.56.27,2.33-.05.21.2.46.36.53.46.22,1.18-.01,1.62-.19.84-.33,1.05-.98,1.28-1.79.12-.44.16-.92.09-1.37-.22-1.43-1.7-2.5-3.1-2.49ZM81.94,41.28c-5.01-1.1-9.93.54-14.88,1.06-3.22.34-7.32-.11-8.25-3.83-.52-2.08,1.3-2.84,3.15-2.76-2.34-.92-4.66.1-4.69,2.88-.02,3.85,3.54,6.43,7.01,7.05,4.62.82,9.45-.05,14.06.15,4.16.18,8.74,3.37,7.35,7.79-1.76,4.44-7.19,6.42-11.74,6.98-4.18.57-8.94.68-12.41-1.99-4.12-2.52-5.2-7.38-2.89-11.62-1.47,1.32-2.38,3.29-2.68,5.35-.64,3.27,1.13,6.56,3.46,8.74,6.1,6.45,20.74,5.66,27.27.18,8.23-6.46,5.32-17.76-4.77-19.98ZM176.06,26.17c-.95,5.51-7.51,9.21-12.71,7.54-3.35-1.08-5.55-3.8-7.12-6.82-2.02-3.88-3.24-10.81-.11-14.48,1.34-1.57,3.36-2.53,5.4-2.71,2.33-.2,4.36,1.39,5.29,3.44,2.47,5.43-2.72,10.31-7.42,11.89-.5.17-1.03.33-1.46.64-.14.1-.25.18-.29.33-.05.25,2.52.14,2.74.1,2.58-.45,5.24-2.33,7.3-3.89,1.53-1.15,3.06-2.58,3.98-4.29.85-1.57.56-3.53-.24-5.06-1.11-2.1-3.03-3.97-5.43-4.39-1.39-.24-2.86-.29-4.26-.15-3.15.31-6.35,1.64-8.7,3.77-1.8,1.64-2.83,3.98-3.33,6.33-1.43,6.67,1.58,14.63,8.11,17.44,3.07,1.32,6.62,1.44,9.78.45,4.2-1.32,8.16-4.66,8.93-9.14.23-1.89-.45-1.02-.45-1.02ZM25.94,30.55c-1.91,3.03-5.06,5.11-8.52,5.96-6.37,1.57-12.76-1.18-15.81-7-.41-.78-.76-1.59-.99-2.44C.22,25.61.03,24.25,0,22.98c-.04-2.05.37-4.09,1.21-5.97,2.43-5.43,8.28-8.94,14.22-8.39,6.21.58,11.37,5.45,12.53,11.54.68,3.55-.1,7.33-2.02,10.38ZM19.08,21.02c-.92-1.65-1.87-3.25-2.7-4.94-.71-1.46-1.64-3.12-1.87-4.75,0,0-.23-1.72-.63-1.68-.08,0-.41,1.31-.45,1.41-.42,1.25-.9,2.49-1.42,3.71-1.5,3.51-3.9,6.61-4.94,10.33-1.02,3.6-.04,7.56,3.27,9.63,1,.62,2.14,1.01,3.3,1.09,3.1.21,6.1-1.7,7.24-4.56,1.36-3.44-.11-7.19-1.81-10.23Z"/>
  </g>
</svg>