<svg width="30" height="29" viewBox="0 0 30 29" fill="none" xmlns="http://www.w3.org/2000/svg">
<path d="M17.1406 1.22987C18.0082 2.05269 18.8361 3.38848 18.9136 4.5986C19.0134 6.15129 18.6124 7.33215 18.3645 8.7936C18.3421 8.92442 18.3455 9.05352 18.3507 9.18435C18.4144 9.25837 18.8688 8.68687 18.9308 8.60769C19.8518 7.42166 20.9397 5.69684 21.6179 4.37827C21.9914 3.65357 22.2754 2.77222 22.6851 2.07679C22.7333 1.99588 22.6731 1.92014 22.8401 1.95457C22.3443 4.56246 20.9655 6.84156 19.5935 9.07074C19.4834 9.24976 19.1976 9.46149 19.2252 9.74724C19.492 9.79544 19.5557 9.55961 19.7123 9.44083C21.2908 8.24276 21.6506 7.7711 23.625 7.13247C24.317 6.90869 24.4444 6.59196 25.2052 7.04296C25.8972 7.45264 26.226 8.28235 26.7768 8.83835C27.3328 9.3978 28.4569 9.98823 28.8649 10.4926C29.3761 11.1243 28.9854 12.5307 28.5981 13.159C28.4208 13.4465 28.1247 13.4895 27.9956 13.9336C27.6375 15.173 28.5103 16.6327 27.7925 17.8584C27.6582 17.9134 27.5239 17.9393 27.3793 17.9014C27.0351 17.8119 26.2949 17.3282 25.8783 17.156C24.9522 16.7722 23.3634 16.2713 22.3787 16.4227C22.1997 16.4503 21.9553 16.6224 22.1567 16.7618C22.2359 16.8152 22.7351 16.8686 22.9192 16.934C23.4873 17.1319 24.391 17.6621 24.8661 18.0425C25.3756 18.4488 26.782 19.924 26.8664 20.5299C26.93 20.9809 26.5823 21.6161 26.5238 22.0017C26.4463 22.5078 26.6529 22.6937 26.2708 23.1826C25.9076 23.6473 25.5788 23.6628 25.1536 23.9365C24.7387 24.2034 24.6423 24.8575 24.4461 25.2861C24.1552 25.9178 23.8608 26.2363 23.2928 26.6391C22.3856 26.8577 21.4079 26.5496 20.5093 26.6494C19.5367 26.7596 18.4798 27.2881 17.5692 27.6375C17.2766 27.696 16.9306 27.5686 16.7085 27.3827C16.3074 27.0471 16.5106 26.0108 16.4847 25.4875C16.4124 24.0742 16.2076 22.1102 15.779 20.7692C15.7256 20.6005 15.6964 20.4146 15.4846 20.4714C15.5242 20.7193 15.4158 20.9517 15.4158 21.1892C15.4209 22.6455 15.5759 24.2894 15.4209 25.7388C15.3383 26.51 14.9355 27.4413 14.2952 27.9164C13.7564 28.3157 13.2399 27.9869 12.5858 28.3897C12.3156 28.555 12.0419 29.0232 11.7905 28.9991C11.2535 28.9492 10.4754 27.9766 10.0106 27.6427C9.42194 27.2209 8.64732 26.9335 7.9536 26.7217C7.22546 26.4997 6.1169 26.3774 5.47138 26.0917C5.10645 25.9299 5.10301 25.4049 5.21317 25.0675C5.29408 24.823 5.53679 24.6561 5.50753 24.372C5.46794 23.9692 4.76906 23.3702 4.61414 22.9519C4.41446 22.4148 4.42651 22.0929 4.65028 21.5765C5.01522 20.7313 6.84332 18.8137 7.59556 18.225C8.00869 17.9014 8.606 17.6552 9.06045 17.3833L9.12242 17.1027C8.96405 17.1354 8.63699 17.0941 8.50444 17.1371C7.81417 17.3609 6.17887 18.435 5.62975 18.9411C4.93775 19.578 4.18896 21.2443 3.13547 20.2993C3.08728 19.7897 3.05629 18.8809 2.72407 18.4798C2.48824 18.1957 1.47263 17.867 1.06982 17.5778C0.155773 16.9219 0.618823 16.4055 0.580953 15.4467C0.574067 15.2642 0.534476 14.9578 0.508655 14.7719C0.319304 13.4689 -0.29867 13.0488 0.174708 11.6167C0.543083 10.5029 1.56214 10.3067 2.16118 9.3014C2.34708 8.98983 2.36086 8.61974 2.69997 8.46826C3.22326 8.23415 4.08567 8.39079 4.64856 8.51473C5.90172 8.7936 7.28915 9.41846 8.39428 10.0691C8.952 10.3979 9.64916 10.9952 10.2034 11.2534C10.3515 11.3223 10.4582 11.3688 10.6183 11.3034C10.6441 11.1588 10.5976 11.0538 10.5236 10.9333C10.1707 10.3566 8.84011 9.22222 8.27378 8.75917C7.44408 8.08095 6.56445 7.58691 5.84836 6.75549C5.09096 5.87414 4.27158 4.61238 5.88451 4.10801C6.80717 3.81882 7.16866 4.41614 7.74015 3.40741C7.98975 2.96674 8.40288 1.73596 8.75232 1.48808C9.6285 0.866662 10.8937 1.64128 11.8026 1.80137C12.3104 1.89088 12.4447 1.81686 12.7769 1.45709C13.221 0.97683 13.4913 0.458696 14.1609 0.160898C14.6411 -0.0525525 14.9768 -0.0422242 15.4743 0.124749C15.9718 0.291723 16.7567 0.859776 17.1457 1.22987H17.1406ZM15.7308 11.9265C15.8685 10.8007 16.0923 9.40124 15.7773 8.29612C15.6602 7.88815 15.2781 7.21509 14.8047 7.6024C14.6807 8.28063 14.9321 8.93131 14.982 9.58887C15.0405 10.348 15.0078 11.3275 14.7634 12.0487C14.71 12.2071 14.3537 13.0988 14.1437 12.6701C13.8769 11.806 13.5963 10.7783 13.1367 9.99856C12.9731 9.7197 12.5893 9.11894 12.2484 9.4701C12.1314 10.3256 12.8853 10.8816 13.2486 11.5685C13.3949 11.8439 13.5154 12.1537 13.6118 12.4515C13.703 12.7304 13.9078 13.3604 13.8321 13.61C13.8063 13.6926 13.734 13.7667 13.6737 13.8286C12.9559 13.4878 12.8716 12.0625 11.8095 12.4894C11.7028 12.8784 12.0901 12.906 12.3311 13.1091C12.4516 13.2106 13.0437 13.7856 13.0368 13.8871C12.9938 13.9749 12.9249 14.0231 12.8303 14.0403C12.2002 14.1608 11.0762 13.4706 10.4307 13.264C9.66982 13.0196 8.03795 12.6684 7.3012 12.9387C6.98791 13.054 6.95693 13.2141 7.00857 13.536C7.6472 13.7529 8.33919 13.6427 9.02258 13.7357C9.70596 13.8286 11.1554 14.2022 11.6993 14.6118C11.8405 14.7186 11.9971 14.9286 12.1142 15.0715C11.7871 15.0766 11.4428 14.9372 11.0882 14.9131C10.5512 14.8752 9.057 14.8287 8.66453 15.1128C8.45452 15.2642 8.27894 15.6171 8.55953 15.7566C8.76437 15.8581 9.76621 15.6154 10.0847 15.5982C10.6303 15.5689 12.202 15.6998 12.6357 15.9838C13.2158 16.3642 12.5032 16.7567 12.2398 17.0682C11.5754 17.8532 9.92114 19.9395 9.93146 20.931C9.93835 21.518 10.5563 21.9122 10.9918 21.4319C11.565 20.0841 12.035 18.5314 13.1143 17.5072C13.1763 17.4487 13.2072 17.3419 13.2537 17.3041C13.3553 17.2232 14.0197 16.8014 14.0438 17.0665C13.641 17.953 12.9869 18.8516 13.3536 19.8638C13.8493 20.1633 14.0008 19.5522 14.0937 19.1718C14.3038 18.3076 14.2022 17.8584 14.8787 17.1199C15.371 16.5828 15.7497 16.5157 16.3488 16.946C16.6965 17.1956 17.2335 17.7671 17.4763 18.1252C17.9514 18.8275 18.0581 19.7519 18.38 20.5248C18.6106 20.7537 18.9308 20.6229 18.9739 20.3113C19.0444 19.7984 18.8103 19.3267 18.5883 18.8826C18.0977 17.9066 17.3368 17.0596 16.7275 16.1628C16.8359 16.1628 16.9478 16.1456 17.0562 16.1766C17.3403 16.2592 18.034 16.5845 18.2956 16.7464C18.9721 17.1612 19.0737 17.5847 19.5367 18.1235C19.6469 18.2526 20.0273 18.7122 20.1926 18.4712C20.5351 17.9702 19.3646 16.8755 18.9549 16.6482L16.6052 15.5379C16.4383 15.3004 17.2335 15.3486 17.3213 15.352C18.0047 15.3796 18.4833 15.6137 19.072 15.7221C19.9722 15.8857 19.9206 15.0715 19.1959 14.9751C18.4127 14.8718 17.4935 15.0869 16.6999 15.0405C16.3746 14.9992 17.3644 14.364 17.4229 14.3295C18.0477 13.9646 18.7811 13.7116 19.5023 13.6651C20.2115 13.6203 21.1084 13.8148 21.7435 13.7236C22.0499 13.6806 22.2548 13.5136 22.0844 13.2089C21.7556 12.6185 20.5128 12.9111 19.9447 12.9232L17.0425 13.8544C16.9719 13.7907 17.3592 13.4344 17.416 13.3862C18.0856 12.8165 18.8895 12.7751 19.6486 12.4085L19.6056 12.0728C19.4421 11.8594 18.6537 12.2277 18.4247 12.3379C18.0477 12.5169 17.163 13.0144 16.8617 13.2692C16.5484 13.5343 16.3057 14.0025 16.0337 14.3158C15.7463 14.648 14.8271 15.7152 14.3692 15.2539C13.9337 14.8167 14.3881 14.049 14.7048 13.6703C14.9407 13.3879 15.2712 13.1418 15.5173 12.8612C16.0441 12.2604 16.7206 11.5719 16.8531 10.768C16.8789 10.6165 16.8875 9.97618 16.7946 9.89872C16.7206 9.87118 16.619 9.80921 16.5415 9.83847C16.2093 9.96069 16.137 11.6597 15.7342 11.9248L15.7308 11.9265Z" fill="white"/>
<path d="M23.4425 0.093773C24.3755 -0.188533 23.6698 1.31939 23.1155 0.892491C23.0277 0.749617 23.2738 0.143693 23.4425 0.093773Z" fill="white"/>
<path d="M22.1945 0.530985C22.5577 0.498279 22.7815 1.14379 22.3718 1.31593C22.031 1.20576 21.6506 0.580905 22.1945 0.530985Z" fill="white"/>
<path d="M24.2602 1.40375C24.4633 1.75664 23.8023 2.10952 23.5527 1.76524C23.4735 1.37277 24.0795 1.08874 24.2602 1.40375Z" fill="white"/>
<path d="M23.4098 3.00291C23.2635 2.76536 23.6611 2.32985 23.9314 2.57428C24.0846 2.77052 24.0089 2.95987 23.8367 3.10791C23.7696 3.18021 23.4253 3.02528 23.4115 3.00118L23.4098 3.00291Z" fill="white"/>
<path d="M21.9036 2.26441C21.7608 2.27302 21.4526 2.27474 21.3717 2.14047C21.0912 1.67226 22.1085 1.30905 21.9036 2.26441Z" fill="white"/>
<path d="M21.1376 2.71027L21.3424 2.73092C21.5094 2.92544 21.6557 3.16643 21.3597 3.31447C20.9276 3.34373 20.7107 2.94437 21.1376 2.71027Z" fill="white"/>
<path d="M23.1052 3.71382C23.2877 3.55889 23.8024 3.60709 23.7025 3.96514C23.5682 4.45057 22.754 4.01334 23.1052 3.71382Z" fill="white"/>
</svg>
