<svg width="491" height="489" viewBox="0 0 491 489" fill="none" xmlns="http://www.w3.org/2000/svg">
<path d="M486.061 176.647C479.202 168.161 460.281 158.217 450.911 148.791C441.626 139.435 436.071 125.465 424.429 118.564C411.609 110.962 409.477 116.306 397.821 120.079C364.579 130.837 373.485 114.033 346.905 134.217C344.282 136.209 343.202 140.207 338.714 139.379C338.265 134.568 343.062 131.019 344.928 127.99C368.029 90.4692 376.277 76.7935 384.636 32.8909C381.845 32.3158 382.827 33.6063 382.027 34.9528C375.126 46.6648 370.329 61.5047 364.046 73.7077C352.628 95.9114 349.29 100.246 333.777 120.219C332.725 121.566 325.094 131.188 324.014 129.925C323.944 127.723 323.888 125.549 324.253 123.361C328.447 98.7588 320.199 103.612 318.53 77.4527C317.226 57.0584 303.283 34.5741 288.668 20.716C282.104 14.5024 268.989 4.97844 260.517 2.11706C252.143 -0.716263 246.491 -0.884579 238.411 2.70617C227.134 7.72761 222.59 16.438 215.114 24.5312C209.517 30.5906 207.259 31.8109 198.703 30.3241C183.428 27.6451 162.094 14.5865 147.352 25.0502C141.475 29.216 134.518 49.933 130.31 57.3669C120.688 74.3529 114.587 64.31 99.0594 69.1631C71.9184 77.6491 82.1296 101.101 94.8795 115.941C94.8795 115.941 111.767 128.228 115.863 136.448L108.836 144.078C97.797 144.821 79.3523 139.954 79.3523 139.954C69.8845 137.85 54.2592 138.664 45.4506 142.591C39.7559 145.13 39.5034 151.386 36.3896 156.618C26.2906 173.561 9.12229 176.844 2.93666 195.611C-5.03032 219.75 5.39127 226.806 8.57526 248.757C9.03813 251.913 9.68334 257.046 9.80958 260.118C10.4267 276.248 2.6421 284.959 18.029 295.998C24.8038 300.865 41.9019 306.405 45.8854 311.188C51.4819 317.935 52.0149 333.252 52.8144 341.822C70.5438 357.728 72.2269 334.135 87.7401 330.979C106.241 327.22 78.2863 363.31 78.2863 363.31C74.5132 372.021 74.3169 377.435 77.6692 386.482C80.2781 393.495 92.0322 403.594 92.7054 410.383C93.1823 415.166 89.1147 417.985 87.7401 422.109C85.8606 427.761 85.9447 436.612 92.0743 439.347C102.945 444.172 121.614 446.234 133.873 449.965C145.557 453.528 158.615 458.367 168.518 465.464C176.359 471.075 189.459 487.458 198.492 488.299C202.728 488.692 207.357 480.809 211.902 478.018C222.912 471.243 231.623 476.77 240.684 470.051C251.484 462.042 256.449 446.024 259.647 433.372C267.025 404.197 277.559 429.136 277.559 429.136C278.008 437.945 274.585 455.393 281.346 461.046C285.091 464.188 290.926 466.334 295.849 465.338C311.194 459.461 328.98 450.54 345.363 448.703C360.497 447.006 376.95 452.195 392.225 448.52C401.791 441.746 406.756 436.388 411.651 425.742C414.975 418.518 416.588 407.507 423.574 403.019C430.727 398.432 436.267 398.152 442.383 390.325C448.821 382.092 445.357 378.964 446.647 370.45C447.629 363.927 453.492 353.239 452.426 345.651C450.981 335.44 427.305 310.585 418.72 303.754C410.711 297.372 411.399 294.567 401.819 291.229C398.719 290.149 390.289 289.237 388.956 288.339C385.562 286.011 389.672 283.093 392.702 282.63C409.267 280.092 420.137 282.378 435.734 288.844C442.762 291.748 455.231 299.883 461.024 301.398C463.451 302.029 465.723 301.594 467.967 300.668C480.058 280.036 465.358 255.447 471.389 234.576C473.55 227.1 478.557 226.371 481.531 221.532C488.067 210.942 494.631 187.279 486.033 176.619L486.061 176.647Z" fill="#F17A90"/>
</svg>
