<svg width="82" height="82" viewBox="0 0 82 82" fill="none" xmlns="http://www.w3.org/2000/svg">
<path d="M48.2848 3.46453C50.7287 5.7824 53.0611 9.54529 53.2793 12.9542C53.5606 17.3281 52.4308 20.6546 51.7325 24.7714C51.6694 25.14 51.6791 25.5037 51.6937 25.8722C51.8731 26.0807 53.1533 24.4708 53.3278 24.2477C55.9221 20.9067 58.9867 16.0479 60.8973 12.3335C61.9495 10.2921 62.7496 7.80932 63.9037 5.85029C64.0395 5.62238 63.8698 5.40902 64.3401 5.506C62.9436 12.8524 59.0595 19.2726 55.1947 25.5521C54.8844 26.0564 54.0794 26.6529 54.157 27.4578C54.9086 27.5936 55.0881 26.9293 55.5293 26.5947C59.9759 23.2197 60.9894 21.8911 66.5513 20.0921C68.5006 19.4617 68.8595 18.5695 71.0028 19.8399C72.9521 20.994 73.8783 23.3313 75.43 24.8975C76.9962 26.4735 80.1627 28.1367 81.3119 29.5575C82.7521 31.3371 81.6514 35.2988 80.5603 37.0687C80.0609 37.8785 79.2268 37.9998 78.8632 39.2508C77.8545 42.7422 80.313 46.8542 78.291 50.3068C77.9127 50.4619 77.5345 50.5347 77.1272 50.428C76.1574 50.1758 74.0722 48.8132 72.8988 48.3283C70.29 47.247 65.8142 45.8359 63.0406 46.2626C62.5363 46.3402 61.8477 46.8251 62.415 47.2179C62.6381 47.3682 64.0443 47.5185 64.5632 47.7028C66.1634 48.2604 68.7092 49.754 70.0475 50.8256C71.4828 51.97 75.4445 56.1257 75.6821 57.8325C75.8616 59.103 74.882 60.8923 74.7172 61.9785C74.499 63.4041 75.0809 63.9278 74.0044 65.305C72.9812 66.6142 72.055 66.6579 70.8573 67.4289C69.6887 68.1805 69.4171 70.0232 68.8643 71.2306C68.0448 73.0102 67.2156 73.9073 65.6154 75.042C63.06 75.6578 60.3057 74.7898 57.7745 75.0711C55.0347 75.3814 52.0574 76.8701 49.4922 77.8544C48.6679 78.0193 47.6932 77.6605 47.0677 77.1368C45.9378 76.1912 46.51 73.272 46.4373 71.7979C46.2336 67.8168 45.6566 62.284 44.4491 58.5066C44.2988 58.0314 44.2164 57.5077 43.62 57.6677C43.7315 58.3659 43.426 59.0206 43.426 59.6897C43.4405 63.7921 43.877 68.423 43.4405 72.5059C43.2078 74.6783 42.0731 77.3016 40.2692 78.64C38.7515 79.765 37.2967 78.8388 35.4541 79.9735C34.6928 80.439 33.9218 81.758 33.2138 81.6901C31.7009 81.5494 29.5091 78.8097 28.1998 77.869C26.5415 76.681 24.3594 75.8712 22.4052 75.2747C20.354 74.6492 17.2312 74.3049 15.4128 73.5C14.3848 73.0441 14.3751 71.5652 14.6854 70.6147C14.9133 69.9262 15.5971 69.4558 15.5146 68.6557C15.4031 67.521 13.4344 65.8335 12.9979 64.6552C12.4355 63.1423 12.4694 62.2355 13.0998 60.7808C14.1278 58.3999 19.2775 52.998 21.3966 51.3396C22.5604 50.428 24.243 49.7346 25.5231 48.9684L25.6977 48.178C25.2516 48.2701 24.3303 48.1538 23.9569 48.275C22.0124 48.9054 17.4058 51.9312 15.8589 53.3568C13.9096 55.151 11.8002 59.8449 8.83258 57.1828C8.6968 55.7474 8.60952 53.1871 7.67364 52.0573C7.00932 51.2572 4.14835 50.331 3.01367 49.5164C0.4388 47.6688 1.74321 46.2141 1.63653 43.5132C1.61713 42.9992 1.5056 42.136 1.43286 41.6123C0.899464 37.9416 -0.84136 36.7584 0.49214 32.7239C1.52985 29.5866 4.40051 29.0338 6.08799 26.2019C6.61169 25.3242 6.65049 24.2817 7.60576 23.855C9.07988 23.1955 11.5093 23.6368 13.0949 23.9859C16.6251 24.7714 20.5334 26.5317 23.6465 28.3646C25.2177 29.2908 27.1815 30.9734 28.7429 31.7008C29.16 31.8948 29.4606 32.0257 29.9116 31.8414C29.9843 31.4341 29.8534 31.1383 29.6449 30.7989C28.6508 29.1744 24.9025 25.9789 23.3071 24.6745C20.9699 22.7639 18.492 21.3722 16.4747 19.0301C14.3411 16.5474 12.033 12.993 16.5766 11.5722C19.1757 10.7576 20.194 12.4402 21.8039 9.59863C22.507 8.35727 23.6708 4.89017 24.6552 4.1919C27.1233 2.44137 30.6874 4.62347 33.2477 5.07443C34.6782 5.32658 35.0565 5.11807 35.9923 4.10461C37.2434 2.75172 38.0047 1.29214 39.891 0.453248C41.2439 -0.14804 42.1895 -0.118945 43.5909 0.351417C44.9922 0.821779 47.2034 2.42198 48.2993 3.46453L48.2848 3.46453ZM44.3134 33.5968C44.7013 30.4255 45.3317 26.4832 44.4443 23.3701C44.1146 22.2208 43.0381 20.3248 41.7046 21.4159C41.3554 23.3264 42.0634 25.1594 42.204 27.0117C42.3689 29.1502 42.2768 31.9093 41.5882 33.9411C41.4379 34.3872 40.4341 36.899 39.8425 35.6916C39.0909 33.2574 38.3005 30.3624 37.0058 28.1658C36.5451 27.3803 35.4638 25.6879 34.5037 26.6771C34.1739 29.0871 36.2978 30.6534 37.321 32.5882C37.7332 33.364 38.0726 34.2369 38.3441 35.0758C38.6011 35.8613 39.1782 37.6361 38.9648 38.3392C38.8921 38.572 38.6884 38.7805 38.5187 38.955C36.4966 37.9949 36.259 33.9799 33.2671 35.1824C32.9665 36.2783 34.0575 36.3559 34.7364 36.9281C35.0759 37.2142 36.7439 38.8338 36.7245 39.1199C36.6033 39.3672 36.4094 39.503 36.1427 39.5515C34.3679 39.8909 31.2014 37.9464 29.383 37.3645C27.2397 36.676 22.6428 35.6867 20.5674 36.4481C19.6848 36.7729 19.5976 37.2239 19.743 38.1307C21.542 38.7417 23.4914 38.4313 25.4165 38.6932C27.3416 38.955 31.4245 40.0073 32.9568 41.1614C33.3544 41.462 33.7957 42.0536 34.1254 42.4561C33.2041 42.4706 32.2343 42.0778 31.2354 42.01C29.7225 41.9033 25.5134 41.7724 24.4079 42.5725C23.8163 42.9992 23.3217 43.9932 24.1121 44.386C24.6891 44.6721 27.5113 43.9884 28.4084 43.9399C29.9455 43.8575 34.3727 44.226 35.5947 45.0261C37.2289 46.0977 35.2213 47.2033 34.4794 48.081C32.6077 50.2922 27.9477 56.1693 27.9768 58.9624C27.9962 60.6159 29.737 61.7264 30.9638 60.3735C32.5786 56.5766 33.9024 52.2027 36.9428 49.3175C37.1173 49.1527 37.2046 48.852 37.3355 48.7453C37.6216 48.5174 39.4934 47.3294 39.5613 48.0762C38.4266 50.5735 36.5839 53.1047 37.6168 55.9559C39.0133 56.7997 39.44 55.0783 39.7019 54.0066C40.2935 51.5724 40.0074 50.3068 41.9131 48.2265C43.2999 46.7136 44.3667 46.5245 46.0542 47.7367C47.0337 48.4399 48.5466 50.0498 49.2304 51.0584C50.5687 53.0368 50.8693 55.6408 51.7761 57.818C52.4259 58.4629 53.3278 58.0944 53.4491 57.2167C53.6479 55.7717 52.9884 54.443 52.3629 53.192C50.9809 50.4425 48.8376 48.0568 47.121 45.5304C47.4265 45.5304 47.7417 45.4819 48.0472 45.5692C48.8473 45.8019 50.8015 46.7184 51.5385 47.1742C53.4442 48.3429 53.7303 49.5357 55.0347 51.0535C55.3451 51.4172 56.4167 52.7119 56.8822 52.033C57.8472 50.6219 54.5498 47.5379 53.3957 46.8978L46.7767 43.7702C46.3064 43.101 48.5466 43.2368 48.7939 43.2465C50.719 43.3241 52.0671 43.9835 53.7255 44.289C56.2615 44.7497 56.1161 42.4561 54.0746 42.1845C51.8683 41.8936 49.2788 42.4997 47.0434 42.3688C46.1269 42.2524 48.9152 40.4631 49.08 40.3661C50.8403 39.3381 52.906 38.6253 54.9377 38.4944C56.9356 38.3683 59.4619 38.9162 61.2512 38.6592C62.1144 38.538 62.6914 38.0676 62.2114 37.2094C61.2852 35.5461 57.7841 36.3705 56.1839 36.4044L48.0084 39.0278C47.8096 38.8484 48.9006 37.8446 49.0606 37.7088C50.9469 36.1038 53.2115 35.9874 55.3499 34.9545L55.2287 34.009C54.768 33.4077 52.5471 34.4454 51.9022 34.7557C50.8403 35.26 48.3478 36.6614 47.4992 37.3791C46.6167 38.1258 45.933 39.4448 45.1668 40.3273C44.357 41.2632 41.7676 44.2696 40.4777 42.9701C39.2509 41.7384 40.5311 39.5757 41.4233 38.5089C42.0876 37.7137 43.0187 37.0202 43.7121 36.2298C45.1959 34.5375 47.1016 32.5979 47.475 30.3333C47.5477 29.9066 47.572 28.1028 47.3101 27.8846C47.1016 27.807 46.8155 27.6324 46.5973 27.7148C45.6614 28.0591 45.4578 32.8452 44.3231 33.5919L44.3134 33.5968Z" fill="#DC368A"/>
<path d="M66.0373 0.264129C68.6655 -0.531122 66.6774 3.71668 65.116 2.51411C64.8687 2.11163 65.5621 0.404752 66.0373 0.264129Z" fill="#F17A90"/>
<path d="M62.5217 1.4958C63.5448 1.40366 64.1752 3.22207 63.0211 3.70698C62.061 3.39664 60.9893 1.63642 62.5217 1.4958Z" fill="#F17A90"/>
<path d="M68.3406 3.95428C68.9128 4.94835 67.0507 5.94241 66.3476 4.97259C66.1246 3.867 67.8314 3.0669 68.3406 3.95428Z" fill="#F17A90"/>
<path d="M65.9451 8.45909C65.533 7.78991 66.6531 6.56309 67.4144 7.25166C67.846 7.80446 67.6326 8.33786 67.1477 8.75488C66.9586 8.95854 65.9888 8.52212 65.95 8.45424L65.9451 8.45909Z" fill="#F17A90"/>
<path d="M61.7022 6.37884C61.2998 6.40308 60.4318 6.40793 60.2039 6.0297C59.4135 4.71075 62.2793 3.68759 61.7022 6.37884Z" fill="#F17A90"/>
<path d="M59.5443 7.63475L60.1213 7.69294C60.5917 8.24089 61.0038 8.91976 60.1698 9.33678C58.9527 9.41922 58.3417 8.29423 59.5443 7.63475Z" fill="#F17A90"/>
<path d="M65.087 10.4618C65.601 10.0254 67.0509 10.1611 66.7697 11.1697C66.3914 12.5372 64.0978 11.3055 65.087 10.4618Z" fill="#F17A90"/>
<path d="M72.8889 48.3186C74.0624 48.8035 76.1524 50.1661 77.1173 50.4183C77.5247 50.525 77.9029 50.4522 78.2811 50.297C78.8485 49.3321 79.0618 48.3186 79.1006 47.2761L70.0134 47.2761C71.0802 47.6106 72.0791 47.9792 72.8938 48.3186H72.8889Z" fill="white"/>
<path d="M3.01379 49.5118C4.14847 50.3264 7.00944 51.2526 7.67376 52.0527C8.60964 53.1825 8.69692 55.7428 8.8327 57.1782C11.7955 59.8403 13.9097 55.1464 15.859 53.3522C17.4059 51.9266 22.0125 48.9008 23.957 48.2704C24.3304 48.1492 25.2517 48.2704 25.6978 48.1734L25.5233 48.9638C24.2383 49.73 22.5605 50.4234 21.3967 51.335C19.2776 52.9934 14.1279 58.3953 13.0999 60.7762C12.4695 62.2309 12.4356 63.1377 12.9981 64.6506C13.4345 65.8241 15.4032 67.5116 15.5147 68.6511C15.5923 69.4512 14.9135 69.9216 14.6855 70.6101C14.3704 71.5557 14.3849 73.0395 15.4129 73.4954C17.2313 74.3052 20.3541 74.6446 22.4053 75.2701C24.3595 75.8666 26.5464 76.6764 28.2 77.8644C29.5141 78.8051 31.7059 81.5449 33.2139 81.6855C33.9219 81.7534 34.6978 80.4344 35.4542 79.9689C37.2969 78.8342 38.7516 79.7604 40.2694 78.6354C42.0781 77.297 43.2079 74.6688 43.4407 72.5013C43.8771 68.4184 43.4407 63.7875 43.4261 59.6851C43.4261 59.016 43.7316 58.3613 43.6201 57.6631C44.2165 57.5079 44.2941 58.0316 44.4493 58.502C45.6567 62.2794 46.2337 67.8122 46.4374 71.7933C46.515 73.2675 45.9428 76.1866 47.0678 77.1322C47.6933 77.6559 48.6728 78.0147 49.4923 77.8498C52.0575 76.8703 55.0348 75.3768 57.7746 75.0665C60.3058 74.7804 63.0601 75.6484 65.6155 75.0374C67.2158 73.9027 68.0449 73.0105 68.8644 71.226C69.4221 70.0186 69.6888 68.1759 70.8574 67.4243C72.0551 66.6581 72.9813 66.6096 74.0045 65.3004C75.081 63.9233 74.5039 63.3996 74.7173 61.9739C74.8822 60.8829 75.8617 59.0936 75.6823 57.8279C75.4398 56.1211 71.4829 51.9654 70.0476 50.821C68.7093 49.7542 66.1635 48.2607 64.5633 47.6982C64.122 47.543 63.0407 47.4121 62.5897 47.2812L53.9486 47.2812C55.3403 48.3334 57.7261 50.821 56.8872 52.0478C56.4217 52.7267 55.35 51.432 55.0397 51.0683C53.7741 49.5845 53.4637 48.4207 51.689 47.2812L48.377 47.2812C49.8027 49.1966 51.3107 51.0926 52.3727 53.2068C52.9982 54.4578 53.6625 55.7816 53.4589 57.2315C53.3377 58.1092 52.4357 58.4777 51.7859 57.8328C50.8792 55.6507 50.5785 53.0516 49.2402 51.0732C48.5564 50.0646 47.0435 48.4547 46.064 47.7515C45.7973 47.5576 45.5452 47.4024 45.3027 47.2812L43.043 47.2812C42.6793 47.4945 42.3157 47.8146 41.9229 48.2413C40.0172 50.3167 40.3033 51.5823 39.7117 54.0214C39.4499 55.0931 39.0231 56.8145 37.6266 55.9707C36.5937 53.1195 38.4364 50.5834 39.5711 48.091C39.5032 47.3442 37.6314 48.5322 37.3453 48.7601C37.2144 48.862 37.1271 49.1675 36.9526 49.3323C33.9122 52.2175 32.5884 56.5963 30.9736 60.3883C29.7468 61.746 28.0012 60.6307 27.9866 58.9772C27.9575 56.1793 32.6175 50.307 34.4892 48.0958C34.7026 47.8437 35.0275 47.5673 35.333 47.2812L1.43298 47.2812C1.53966 48.0376 1.93729 48.7456 3.01379 49.5166V49.5118Z" fill="white"/>
</svg>
