<svg width="45" height="45" viewBox="0 0 45 45" fill="none" xmlns="http://www.w3.org/2000/svg">
<path fill-rule="evenodd" clip-rule="evenodd" d="M12.511 0.0770067C16.3704 -0.0985358 20.3762 0.0895638 24.2658 0.0291551C27.5551 -0.0219167 30.8348 0.0144827 34.1516 0.159038C36.8582 0.277052 40.2064 0.473963 42.4065 2.30064C44.7747 4.52779 44.8119 9.43618 44.928 12.5419C45.0808 16.6298 44.9221 20.8022 44.9826 24.8963C44.9799 28.0065 45.0191 31.1321 44.841 34.2372C44.6944 36.7948 44.5198 40.4811 42.6594 42.4374C40.4437 44.7672 35.7556 44.8155 32.7463 44.9139C32.6807 44.9184 32.6147 44.9229 32.549 44.9266C31.163 45.0057 29.578 44.9816 28.1809 44.9823L21.5764 44.9813C16.5392 44.9799 11.5792 45.1587 6.61741 44.4374C0.444672 43.5399 0.329614 38.4008 0.102757 33.2782C-0.0805539 29.1401 0.0619233 24.9219 0.0226784 20.7752C-0.0535762 17.4486 0.0802789 14.0247 0.16135 10.7264C0.399331 1.04212 3.74035 0.512523 12.3703 0.0838426L12.511 0.0770067ZM23.0774 11.202L23.0764 22.2049C23.0765 23.2305 23.0739 24.2569 23.0764 25.2831C23.0794 26.5444 23.1929 27.8083 22.2072 28.784C21.6254 29.3598 20.7315 29.6984 19.9162 29.6991C19.0594 29.7048 18.2351 29.3702 17.6252 28.7684C17.0275 28.1588 16.701 27.3339 16.718 26.4803C16.7363 25.6658 17.0743 24.8909 17.6594 24.3241C18.6261 23.3991 19.689 23.3305 20.9211 23.3622L20.9172 19.3602C19.9703 19.3063 19.1173 19.2586 18.1838 19.4862C13.8585 20.5411 11.6601 25.2907 13.301 29.3241C14.1867 31.1513 15.4689 32.6353 17.4358 33.3192C19.2727 33.9578 21.4224 33.8759 23.176 33.0155C24.8627 32.1878 26.1289 30.6516 26.7258 28.8788C27.3835 26.9252 27.0678 21.3334 27.0979 18.9676C29.5673 20.2351 29.7039 20.1848 32.2903 20.5174C32.3127 19.2231 32.3186 17.9282 32.3088 16.6336C30.9966 16.6446 29.4689 15.9626 28.5354 15.0497C27.4896 14.0269 27.1131 12.6004 26.9572 11.1883C25.664 11.181 24.3705 11.1857 23.0774 11.202Z" fill="white"/>
</svg>
